<svg width="27" height="28" viewBox="0 0 27 28" fill="none" xmlns="http://www.w3.org/2000/svg">
<path fill-rule="evenodd" clip-rule="evenodd" d="M3.27776 8.6819C2.64495 9.98784 2.25492 11.4333 2.16631 12.9597H7.85431C7.88394 11.4576 8.01294 10.0166 8.2271 8.6819H3.27776ZM10.1974 8.6819C9.97107 9.98727 9.83016 11.4305 9.79816 12.9597H10.8691C10.8443 12.9958 10.8212 13.0324 10.7998 13.0689C10.7546 13.1459 10.5925 13.4238 10.5904 13.7902C10.5894 13.9587 10.6268 14.0937 10.629 14.1016C10.6389 14.1402 10.6488 14.1714 10.6541 14.1876C10.6654 14.222 10.6771 14.2534 10.6849 14.274C10.7017 14.3182 10.7227 14.3702 10.7447 14.4235C10.7898 14.5328 10.8535 14.6825 10.9314 14.8633L10.9486 14.9031H9.81668C9.86541 16.1138 9.98257 17.2645 10.1559 18.3281H12.4607C12.7381 18.9507 13.0317 19.608 13.3288 20.2716H10.5586C10.7189 20.8971 10.9006 21.4764 11.1001 22.0013C11.4995 23.0524 11.9514 23.8358 12.4038 24.3394C12.8565 24.8433 13.2303 24.986 13.5046 24.986C13.7789 24.986 14.1527 24.8433 14.6055 24.3394C14.7227 24.2089 14.8398 24.0597 14.9561 23.8919C15.1541 24.3305 15.3408 24.7432 15.511 25.1183C15.7843 25.7205 16.0157 26.2277 16.1829 26.5899L16.2124 26.6536C15.3381 26.8345 14.4325 26.9295 13.5046 26.9295C6.15862 26.9295 0.203491 20.9743 0.203491 13.6283C0.203491 6.28228 6.15862 0.327148 13.5046 0.327148C20.8507 0.327148 26.8058 6.28228 26.8058 13.6283C26.8058 15.6746 26.3437 17.613 25.5182 19.3448C25.4344 19.2067 25.3239 19.0758 25.1819 18.9595C25.1307 18.9174 25.0855 18.8878 25.0754 18.8812L25.0745 18.8806C25.0571 18.8691 25.0419 18.8597 25.0321 18.8537C25.0119 18.8414 24.9915 18.8294 24.9746 18.8196C24.9395 18.7993 24.8954 18.7744 24.8459 18.7468C24.7457 18.6909 24.6062 18.6143 24.4352 18.521C24.2809 18.4368 24.0987 18.3379 23.893 18.2266C24.3521 17.191 24.6608 16.0739 24.7916 14.9031H19.1375C19.1279 15.1563 19.1155 15.4075 19.1003 15.6565L18.8763 15.5371C17.3658 14.7321 15.8538 13.9299 14.7093 13.3285C14.4557 13.1953 14.2195 13.0716 14.005 12.9597H17.2111C17.1791 11.4305 17.0382 9.98727 16.8119 8.6819H10.1974ZM14.6486 20.2716C14.3544 19.6151 14.0606 18.9582 13.7795 18.3281H13.7795C13.1743 16.9716 12.6277 15.7392 12.2621 14.9031H12.2621L12.2348 14.8406C12.2275 14.8237 12.2202 14.8071 12.213 14.7906L12.1869 14.7308L12.1293 14.5985C11.9226 14.1227 11.7998 13.8309 11.795 13.7988C11.7948 13.7981 11.7948 13.7975 11.7948 13.797C11.7951 13.7378 11.8623 13.6232 11.9441 13.5422C12.026 13.4614 12.1398 13.3955 12.1972 13.3959C12.3448 13.3967 24.2761 19.7742 24.4183 19.8908C24.4692 19.9325 24.5028 19.9859 24.5203 20.0453C24.5314 20.083 24.536 20.1231 24.5345 20.1644C24.5287 20.3183 24.4366 20.4873 24.2731 20.5992C24.2007 20.6487 24.0121 20.7622 23.7679 20.9045C23.5375 21.0387 23.2574 21.1987 22.9781 21.3549L22.9505 21.3703L21.8877 21.9639L23.6191 23.7242C24.6377 24.7598 25.3501 25.5576 25.3495 25.662C25.3482 25.8942 23.5475 27.6743 23.3153 27.6729C23.2109 27.6723 22.4213 26.9507 21.3975 25.9203L20.4548 24.9714C20.4548 24.9714 20.4548 24.9714 20.4548 24.9714L19.6573 24.1687L19.0515 25.2246L19.0358 25.2521C18.9085 25.4736 18.7788 25.6957 18.662 25.8926C18.662 25.8926 18.662 25.8927 18.6619 25.8927C18.4774 26.204 18.325 26.4527 18.2652 26.5381C18.0731 26.8122 17.7182 26.8809 17.5576 26.6752C17.5471 26.6618 17.4917 26.5473 17.3995 26.3501C17.3995 26.3501 17.3995 26.3501 17.3995 26.3501C17.1077 25.7256 16.4476 24.2714 15.679 22.5651C15.679 22.565 15.679 22.565 15.679 22.565C15.3487 21.8318 14.9984 21.052 14.6486 20.2716H14.6486ZM10.6235 6.73844C10.7674 6.20668 10.9271 5.71055 11.1001 5.25526C11.4995 4.20424 11.9514 3.42077 12.4038 2.91721C12.8565 2.41328 13.2303 2.27061 13.5046 2.27061C13.7789 2.27061 14.1527 2.41328 14.6055 2.91721C15.0579 3.42077 15.5098 4.20424 15.9092 5.25526C16.0822 5.71055 16.2418 6.20668 16.3857 6.73844L10.6235 6.73844ZM18.7822 8.6819C18.9963 10.0166 19.1253 11.4576 19.155 12.9597H24.843C24.7544 11.4333 24.3643 9.98784 23.7315 8.6819H18.7822ZM16.8877 2.783C19.1585 3.49059 21.1234 4.89168 22.5346 6.73844L18.3923 6.73844C18.2012 5.95632 17.9778 5.22777 17.7259 4.56491C17.4796 3.91663 17.2003 3.31604 16.8877 2.783ZM10.1215 2.783C9.80899 3.31604 9.5297 3.91663 9.28335 4.56491C9.03147 5.22777 8.80807 5.95631 8.61697 6.73844L4.47467 6.73844C5.88589 4.89168 7.85078 3.49059 10.1215 2.783ZM10.1215 24.4736C9.80899 23.9406 9.5297 23.34 9.28335 22.6917C9.00518 21.9597 8.76176 21.1475 8.5582 20.2716H4.29143C5.71339 22.2401 7.75077 23.7348 10.1215 24.4736ZM8.18869 18.3281C8.02506 17.2454 7.91695 16.0959 7.87175 14.9031H2.2177C2.35276 16.1123 2.67766 17.2641 3.16191 18.3281H8.18869Z" fill="#41679E"/>
</svg>
