<svg width="337" height="85" viewBox="0 0 337 85" fill="none" xmlns="http://www.w3.org/2000/svg">
<path fill-rule="evenodd" clip-rule="evenodd" d="M81.9965 3.00353H3.00353V81.9965H81.9965V3.00353ZM0 0V85H85V0H0Z" fill="#41679E"/>
<path fill-rule="evenodd" clip-rule="evenodd" d="M18.1863 27.332C18.2548 26.1526 18.5562 25.0356 19.0452 24.0265H22.8697C22.7042 25.0579 22.6045 26.1714 22.5816 27.332H18.1863ZM24.0837 27.332C24.1084 26.1504 24.2173 25.0352 24.3922 24.0265L29.5034 24.0265C29.6783 25.0352 29.7871 26.1504 29.8119 27.332H27.3345C27.5002 27.4185 27.6827 27.5141 27.8787 27.6171C28.7631 28.0818 29.9314 28.7017 31.0986 29.3237C31.1563 29.3545 31.214 29.3852 31.2717 29.416C31.2834 29.2236 31.293 29.0294 31.3005 28.8338H35.6695C35.5685 29.7385 35.3299 30.6017 34.9751 31.4019C35.1341 31.488 35.2749 31.5644 35.3941 31.6294C35.5263 31.7015 35.6341 31.7608 35.7115 31.8039C35.7498 31.8253 35.7838 31.8445 35.8109 31.8602C35.824 31.8678 35.8398 31.877 35.8554 31.8865C35.8629 31.8912 35.8747 31.8985 35.8881 31.9073L35.8889 31.9078C35.8966 31.9129 35.9316 31.9358 35.9712 31.9683C36.0808 32.0582 36.1662 32.1593 36.231 32.266C36.8689 30.9278 37.2259 29.43 37.2259 27.8487C37.2259 22.1722 32.6243 17.5706 26.9478 17.5706C21.2713 17.5706 16.6696 22.1722 16.6696 27.8487C16.6696 33.5252 21.2713 38.1269 26.9478 38.1269C27.6647 38.1269 28.3646 38.0535 29.0401 37.9138C29.0327 37.8977 29.0251 37.8813 29.0174 37.8645C28.8881 37.5846 28.7093 37.1927 28.4982 36.7274C28.3667 36.4375 28.2224 36.1186 28.0693 35.7797C27.9795 35.9093 27.889 36.0247 27.7984 36.1255C27.4486 36.5149 27.1597 36.6251 26.9478 36.6251C26.7358 36.6251 26.447 36.5149 26.0971 36.1255C25.7475 35.7364 25.3983 35.131 25.0897 34.3188C24.9356 33.9131 24.7952 33.4655 24.6713 32.9821H26.8119C26.5824 32.4694 26.3555 31.9615 26.1411 31.4804H24.3601C24.2262 30.6585 24.1357 29.7694 24.098 28.8338H24.9727C24.9682 28.8234 24.9638 28.8132 24.9594 28.803C24.8992 28.6634 24.8499 28.5476 24.8151 28.4632C24.7981 28.422 24.7819 28.3818 24.7689 28.3476C24.7628 28.3317 24.7538 28.3075 24.7451 28.2809C24.741 28.2684 24.7333 28.2443 24.7257 28.2145C24.724 28.2083 24.6951 28.104 24.6959 27.9738C24.6975 27.6907 24.8228 27.476 24.8577 27.4164C24.8742 27.3882 24.8921 27.36 24.9112 27.332H24.0837ZM27.1602 31.4804C27.3774 31.9673 27.6044 32.4749 27.8317 32.9821H29.2243C29.1004 33.4655 28.96 33.9131 28.8059 34.3188C28.7479 34.4713 28.6885 34.6165 28.628 34.7544C29.2219 36.0729 29.7319 37.1967 29.9574 37.6792C30.2901 37.5775 30.6156 37.4593 30.933 37.3257C31.0233 37.1735 31.1235 37.0019 31.2218 36.8307L31.234 36.8095L31.7021 35.9936L32.3184 36.6139C33.0136 36.1869 33.6542 35.6796 34.2272 35.1048L33.4256 34.2899L34.2468 33.8312L34.2682 33.8193C34.484 33.6986 34.7005 33.575 34.8785 33.4712C35.0672 33.3613 35.2129 33.2736 35.2688 33.2353C35.4824 33.0892 35.5383 32.8169 35.3811 32.688C35.3467 32.6598 34.4193 32.1574 33.158 31.4804H31.0556C31.1074 31.1374 31.152 30.7858 31.189 30.4268C30.71 30.1711 30.2236 29.912 29.7498 29.6601C29.7019 30.2951 29.6293 30.9043 29.5354 31.4804H27.1602ZM28.1911 28.8338H25.9877C25.9676 28.7878 25.9482 28.7434 25.9295 28.7006L25.885 28.5984C25.7219 28.223 25.6265 27.9959 25.6266 27.9792C25.6268 27.9334 25.6787 27.8448 25.7419 27.7823C25.8052 27.7198 25.8932 27.6689 25.9375 27.6692C25.9549 27.6693 26.1828 27.7834 26.5573 27.977L26.6514 28.0258C27.0463 28.2306 27.5804 28.5112 28.1911 28.8338ZM25.0897 21.3786C24.956 21.7305 24.8327 22.1138 24.7215 22.5247L29.1741 22.5247C29.0629 22.1138 28.9395 21.7305 28.8059 21.3786C28.4972 20.5665 28.148 19.9611 27.7984 19.572C27.4486 19.1826 27.1597 19.0723 26.9478 19.0723C26.7358 19.0723 26.447 19.1826 26.0971 19.572C25.7475 19.9611 25.3983 20.5665 25.0897 21.3786ZM31.3139 27.332C31.291 26.1714 31.1914 25.0579 31.0259 24.0265H34.8504C35.3394 25.0356 35.6407 26.1526 35.7092 27.332H31.3139ZM30.2097 34.8523C30.0193 35.3532 29.8035 35.8173 29.562 36.2292C31.394 35.6583 32.9683 34.5033 34.0671 32.9821H30.77C30.6127 33.659 30.4246 34.2866 30.2097 34.8523ZM23.6859 34.8523C23.8762 35.3532 24.0921 35.8173 24.3336 36.2292C22.5016 35.6583 20.9273 34.5033 19.8285 32.9821H23.1255C23.2828 33.659 23.4709 34.2866 23.6859 34.8523ZM22.5951 28.8338C22.63 29.7555 22.7136 30.6438 22.84 31.4804H18.9557C18.5815 30.6582 18.3304 29.7682 18.2261 28.8338H22.5951ZM33.9255 22.5247C32.835 21.0977 31.3167 20.015 29.562 19.4683C29.8035 19.8802 30.0193 20.3443 30.2097 20.8452C30.4043 21.3574 30.5769 21.9204 30.7246 22.5247H33.9255ZM19.9701 22.5247C21.0606 21.0977 22.5789 20.015 24.3336 19.4683C24.0921 19.8802 23.8762 20.3442 23.6859 20.8452C23.4912 21.3574 23.3186 21.9204 23.1709 22.5247H19.9701Z" fill="#41679E"/>
<path fill-rule="evenodd" clip-rule="evenodd" d="M25.7419 27.7824C25.6787 27.8449 25.6268 27.9335 25.6265 27.9793C25.6259 28.092 29.9895 37.8152 30.0796 37.9306C30.2037 38.0895 30.478 38.0364 30.6264 37.8247C30.7031 37.7151 30.9765 37.2583 31.234 36.8096L31.7021 35.9937L33.0468 37.3472C33.838 38.1435 34.4481 38.7011 34.5287 38.7015C34.7082 38.7026 36.0996 37.3271 36.1007 37.1476C36.1011 37.067 35.5506 36.4505 34.7635 35.6502L33.4256 34.29L34.2468 33.8313C34.6985 33.579 35.1584 33.3109 35.2688 33.2354C35.4824 33.0893 35.5382 32.817 35.381 32.6881C35.2712 32.598 26.0515 27.6699 25.9375 27.6693C25.8931 27.669 25.8052 27.7199 25.7419 27.7824Z" fill="#41679E"/>
<path fill-rule="evenodd" clip-rule="evenodd" d="M65.477 22.8269L24.0283 64.2757L21.9044 62.1519L63.3532 20.7031L65.477 22.8269Z" fill="#41679E"/>
<path d="M65.2968 59.1697V53.8595H65.1046L61.5725 62.4856L58.0403 53.8595H57.8481V59.1697V67.5796H55.9979V50.8079H58.5929L61.5484 58.2086H61.6926L64.6481 50.8079H67.147V67.5796H65.2968V59.1697Z" fill="#41679E"/>
<path d="M150.704 21.94V63.54C150.704 64.18 150.384 64.5 149.744 64.5H147.184C146.544 64.5 146.224 64.18 146.224 63.54V30.516C145.883 32.0093 145.456 33.332 144.944 34.484L135.664 56.884C135.408 57.524 134.981 57.844 134.384 57.844H132.016C131.461 57.844 131.056 57.524 130.8 56.884L121.136 33.908C120.837 33.2253 120.475 32.116 120.048 30.58V63.54C120.048 64.18 119.749 64.5 119.152 64.5H116.72C116.08 64.5 115.76 64.18 115.76 63.54V21.94C115.76 21.3 116.08 20.98 116.72 20.98H119.152C119.579 20.98 119.856 21.1507 119.984 21.492L132.08 49.78C132.635 51.1027 133.019 52.1907 133.232 53.044C133.573 52.0627 133.979 50.996 134.448 49.844L146.288 21.492C146.416 21.1507 146.715 20.98 147.184 20.98H149.744C150.384 20.98 150.704 21.3 150.704 21.94ZM184.15 40.628V48.5C184.15 49.0973 183.851 49.396 183.254 49.396H165.142V56.5C165.142 58.1213 165.675 59.3587 166.742 60.212C167.851 61.0227 169.792 61.428 172.566 61.428C175.339 61.428 177.259 61.0227 178.326 60.212C179.435 59.3587 179.99 58.1213 179.99 56.5V55.412C179.99 54.8147 180.288 54.516 180.886 54.516H183.19C183.83 54.516 184.15 54.8147 184.15 55.412V56.756C184.15 62.26 180.246 65.012 172.438 65.012C164.672 65.012 160.79 62.26 160.79 56.756V40.628C160.79 35.124 164.715 32.372 172.566 32.372C176.747 32.372 179.712 33.0973 181.462 34.548C183.254 35.956 184.15 37.9827 184.15 40.628ZM165.142 40.884V46.004H179.99V40.884C179.99 37.5987 177.515 35.956 172.566 35.956C167.616 35.956 165.142 37.5987 165.142 40.884ZM198.818 33.012H205.986C206.626 33.012 206.946 33.3107 206.946 33.908V35.7C206.946 36.34 206.626 36.66 205.986 36.66H198.818V55.796C198.818 57.4173 199.372 58.6547 200.482 59.508C201.634 60.3187 203.554 60.724 206.242 60.724H207.33C207.97 60.724 208.29 61.044 208.29 61.684V63.54C208.29 64.18 207.97 64.5 207.33 64.5H205.666C201.484 64.5 198.54 63.8173 196.834 62.452C195.17 61.0867 194.338 59.0173 194.338 56.244V36.66H190.498C189.9 36.66 189.602 36.34 189.602 35.7V34.164C189.602 33.5667 189.9 33.2467 190.498 33.204L193.826 33.012H194.338V26.228C194.338 25.588 194.658 25.268 195.298 25.268H197.922C198.519 25.268 198.818 25.588 198.818 26.228V33.012ZM214.733 41.588V40.5C214.733 35.0813 218.573 32.372 226.253 32.372C233.933 32.372 237.773 35.0813 237.773 40.5V63.54C237.773 64.18 237.474 64.5 236.877 64.5H234.573C233.976 64.5 233.656 64.18 233.613 63.54L233.485 61.236C230.328 63.7533 226.808 65.012 222.925 65.012C220.066 65.012 217.869 64.308 216.333 62.9C214.84 61.4493 214.093 59.636 214.093 57.46V54.26C214.093 52.084 214.797 50.292 216.205 48.884C217.656 47.4333 219.725 46.708 222.413 46.708H233.421V40.948C233.421 39.3693 232.888 38.1533 231.821 37.3C230.754 36.4467 228.877 36.02 226.189 36.02C223.501 36.02 221.602 36.4253 220.493 37.236C219.426 38.0467 218.893 39.2413 218.893 40.82V41.588C218.893 42.2707 218.573 42.612 217.933 42.612H215.629C215.032 42.612 214.733 42.2707 214.733 41.588ZM223.949 61.3C227.192 61.3 230.349 60.1053 233.421 57.716V50.228H223.245C220.002 50.228 218.381 51.764 218.381 54.836V56.884C218.381 59.828 220.237 61.3 223.949 61.3ZM255.686 65.012C252.699 65.012 250.459 64.2867 248.966 62.836C247.515 61.3427 246.79 59.3373 246.79 56.82V40.564C246.79 38.0467 247.515 36.0627 248.966 34.612C250.459 33.1187 252.699 32.372 255.686 32.372C259.782 32.372 263.408 33.6733 266.566 36.276L266.694 33.844C266.736 33.204 267.056 32.884 267.654 32.884H269.958C270.598 32.884 270.918 33.204 270.918 33.844V69.428C270.918 74.932 266.928 77.684 258.95 77.684H250.246C249.606 77.684 249.286 77.3853 249.286 76.788V74.868C249.286 74.2707 249.606 73.972 250.246 73.972H258.95C263.984 73.972 266.502 72.3293 266.502 69.044V61.3C263.131 63.7747 259.526 65.012 255.686 65.012ZM251.206 41.204V56.18C251.206 57.588 251.654 58.74 252.55 59.636C253.488 60.532 254.918 60.98 256.838 60.98C260.038 60.98 263.259 59.7853 266.502 57.396V40.052C263.387 37.62 260.166 36.404 256.838 36.404C254.918 36.404 253.488 36.852 252.55 37.748C251.654 38.644 251.206 39.796 251.206 41.204ZM280.352 56.756V40.628C280.352 35.124 284.363 32.372 292.384 32.372C300.448 32.372 304.48 35.124 304.48 40.628V56.756C304.48 62.26 300.448 65.012 292.384 65.012C284.363 65.012 280.352 62.26 280.352 56.756ZM300.064 56.436V40.948C300.064 37.6627 297.504 36.02 292.384 36.02C287.307 36.02 284.768 37.6627 284.768 40.948V56.436C284.768 59.7213 287.307 61.364 292.384 61.364C297.504 61.364 300.064 59.7213 300.064 56.436ZM323.668 64.5H320.724C320.255 64.5 319.935 64.2013 319.764 63.604L309.652 33.844C309.439 33.204 309.716 32.884 310.484 32.884H313.236C313.748 32.884 314.111 33.204 314.324 33.844L321.492 55.028C321.919 56.436 322.217 57.7587 322.388 58.996C322.772 57.076 323.092 55.7747 323.348 55.092L330.644 33.844C330.857 33.204 331.22 32.884 331.732 32.884H334.164C334.932 32.884 335.209 33.204 334.996 33.844L324.692 63.604C324.521 64.2013 324.18 64.5 323.668 64.5Z" fill="#41679E"/>
</svg>
